<svg width="68" height="68" viewBox="0 0 68 68" fill="none" xmlns="http://www.w3.org/2000/svg">
<g clip-path="url(#clip0_2163_9)">
<rect width="68" height="68" rx="16" fill="#EDEDED"/>
<path d="M63.9663 42.8177C63.9589 42.7604 63.9464 42.7038 63.929 42.6486C63.9205 42.6261 63.9128 42.6048 63.9028 42.5832C63.8982 42.5733 63.8994 42.5625 63.8945 42.5527C63.8728 42.521 63.8491 42.4907 63.8236 42.4618C63.7961 42.4137 63.7644 42.368 63.7289 42.3253C63.7112 42.3062 63.6938 42.2887 63.6747 42.271C63.6319 42.2355 63.5861 42.2037 63.5378 42.176C63.5091 42.1507 63.4789 42.1271 63.4473 42.1054L55 37.8818V15C54.9987 14.901 54.9825 14.8028 54.9521 14.7085C54.945 14.6852 54.9341 14.6647 54.9252 14.6419C54.8905 14.552 54.8429 14.4677 54.7839 14.3915C54.7697 14.3732 54.759 14.354 54.7435 14.3367C54.6804 14.2641 54.6071 14.201 54.5259 14.1494C54.5091 14.139 54.4901 14.1347 54.4729 14.1255C54.4631 14.1201 54.4574 14.1105 54.4473 14.1055L34.4473 4.10547C34.1657 3.96484 33.8343 3.96484 33.5527 4.10547L13.5527 14.1055C13.5427 14.1105 13.537 14.1201 13.5272 14.1255C13.5099 14.1347 13.4909 14.1391 13.4741 14.1495C13.4184 14.186 13.3665 14.2281 13.3193 14.2751C13.3092 14.2847 13.2972 14.2911 13.2875 14.301C13.2763 14.3124 13.2671 14.3249 13.2565 14.3368C13.241 14.3541 13.2303 14.3733 13.2161 14.3916C13.1706 14.4495 13.1317 14.5124 13.1001 14.5789C13.0893 14.6021 13.08 14.6246 13.0709 14.6487C13.0632 14.6691 13.0543 14.6877 13.0479 14.7086C13.0175 14.8028 13.0013 14.901 13 15V37.8818L4.55273 42.1055C4.52151 42.1269 4.49163 42.1502 4.46325 42.1753C4.41434 42.2032 4.36798 42.2354 4.3247 42.2715C4.30578 42.289 4.28863 42.3063 4.27105 42.3253C4.23571 42.3679 4.20412 42.4134 4.17663 42.4614C4.15106 42.4904 4.12729 42.5209 4.10546 42.5527C4.10058 42.5625 4.1018 42.5733 4.09722 42.5832C4.08722 42.6048 4.07946 42.6262 4.07097 42.6486C4.05357 42.7038 4.04109 42.7604 4.03368 42.8177C4.0205 42.8677 4.01125 42.9186 4.006 42.97C4.00574 42.9805 4 42.9894 4 43V48.5C4.00585 48.5469 4.01524 48.5933 4.02808 48.6388C4.03451 48.711 4.0489 48.7823 4.07099 48.8514C4.09627 48.9085 4.12706 48.9631 4.16291 49.0143C4.19348 49.0712 4.22971 49.125 4.27106 49.1747C4.32169 49.2237 4.37743 49.2672 4.43732 49.3044C4.47339 49.3374 4.51198 49.3675 4.55274 49.3945L33.5527 63.8945C33.5615 63.8989 33.5718 63.897 33.5807 63.9011C33.8447 64.0329 34.1553 64.0329 34.4192 63.9011C34.4282 63.897 34.4385 63.8989 34.4472 63.8945L63.4472 49.3945C63.488 49.3675 63.5266 49.3374 63.5627 49.3044C63.6226 49.2672 63.6783 49.2237 63.7289 49.1747C63.8041 49.0724 63.871 48.9643 63.929 48.8514C63.9511 48.7823 63.9655 48.711 63.9719 48.6388C63.9848 48.5933 63.9941 48.5469 64 48.5V43C64 42.9894 63.9943 42.9805 63.994 42.97C63.9887 42.9186 63.9795 42.8677 63.9663 42.8177ZM6 44.6181L33 58.1181V61.3818L6 47.8818V44.6181ZM35 58.1181L62 44.6181V47.8818L35 61.3818V58.1181ZM53 16.6181V42.3818L49 44.3818V18.6181L53 16.6181ZM34 6.11815L51.7637 15L48 16.8818L34.4473 10.1055C34.4385 10.1011 34.4282 10.103 34.4193 10.0989C34.1553 9.96703 33.8447 9.96703 33.5808 10.0989C33.5719 10.103 33.5615 10.1011 33.5528 10.1055L20 16.8818L16.2363 15L34 6.11815ZM35 38.3818V12.6181L47 18.6181V44.3818L35 38.3818ZM21 18.6181L33 12.6181V38.3818L21 44.3818V18.6181ZM15 16.6181L19 18.6181V44.3818L15 42.3818V16.6181ZM13.07 43.3465C13.0813 43.3769 13.0943 43.4046 13.1084 43.4335C13.1495 43.5183 13.2024 43.5967 13.2656 43.6665C13.2804 43.6827 13.2911 43.7012 13.3068 43.7165C13.3792 43.7881 13.4621 43.8481 13.5527 43.8945L19.5527 46.8945C19.5708 46.9035 19.5915 46.9001 19.6099 46.908C19.7069 46.9481 19.8096 46.9723 19.9143 46.9797C19.9435 46.9823 19.9707 47 20 47C20.0113 47 20.0223 46.9957 20.0337 46.9953C20.0643 46.9943 20.0934 46.9867 20.1241 46.9828C20.2159 46.9711 20.3056 46.9466 20.3906 46.91C20.4091 46.902 20.429 46.9037 20.4473 46.8945L34 40.1181L47.5527 46.8945C47.5917 46.9116 47.6318 46.926 47.6727 46.9378C47.6983 46.9467 47.7225 46.9584 47.7486 46.9652C47.8303 46.9874 47.9144 46.999 47.999 47L48.0013 46.9997C48.1407 46.9965 48.2778 46.9642 48.4038 46.9048C48.4177 46.8986 48.4335 46.9013 48.4473 46.8945L54.4473 43.8945C54.7861 43.7251 55.0001 43.3788 55 43V40.1181L60.7637 43L34 56.3818L7.23633 43L13 40.1181V43C13.0023 43.1188 13.026 43.2362 13.07 43.3465Z" fill="#383838"/>
</g>
<defs>
<clipPath id="clip0_2163_9">
<rect width="68" height="68" fill="white"/>
</clipPath>
</defs>
</svg>
